STARTFONT 2.1
FONT --Cairo-Regular-R-Normal--24-180-96-96-P-178-FONTSPECIFIC-0
SIZE 18 96 96
FONTBOUNDINGBOX 40 24 0 -4
METRICSSET 2
STARTPROPERTIES 19
FONT_ASCENT 20
FONT_DESCENT 4
PIXEL_SIZE 24
RESOLUTION_X 96
RESOLUTION_Y 96
POINT_SIZE 180
FACE_NAME "Cairo Regular 18"
FOUNDRY ""
FAMILY_NAME "Cairo"
WEIGHT_NAME "Regular"
RELATIVE_WEIGHT 50
SLANT "R"
SPACING "P"
SETWIDTH_NAME "Normal"
RELATIVE_SETWIDTH 50
ADD_STYLE_NAME ""
AVERAGE_WIDTH 178
CHARSET_REGISTRY "FONTSPECIFIC"
CHARSET_ENCODING "0"
ENDPROPERTIES
CHARS 109
STARTCHAR char00
ENCODING 0
SWIDTH 0 0
DWIDTH 0 0
BBX 0 0 0 -4
VVECTOR 0 -4
SWIDTH1 0 0
DWIDTH1 0 0
BITMAP 
ENDCHAR
STARTCHAR char02
ENCODING 2
SWIDTH 0 0
DWIDTH 0 0
BBX 0 0 0 -4
VVECTOR 0 -4
SWIDTH1 0 0
DWIDTH1 0 0
BITMAP 
ENDCHAR
STARTCHAR char03
ENCODING 3
SWIDTH 0 0
DWIDTH 0 0
BBX 0 0 0 -4
VVECTOR 0 -4
SWIDTH1 0 0
DWIDTH1 0 0
BITMAP 
ENDCHAR
STARTCHAR char04
ENCODING 4
SWIDTH 0 0
DWIDTH 0 0
BBX 0 0 0 -4
VVECTOR 0 -4
SWIDTH1 0 0
DWIDTH1 0 0
BITMAP 
ENDCHAR
STARTCHAR char05
ENCODING 5
SWIDTH 0 0
DWIDTH 0 0
BBX 0 0 0 -4
VVECTOR 0 -4
SWIDTH1 0 0
DWIDTH1 0 0
BITMAP 
ENDCHAR
STARTCHAR char09
ENCODING 9
SWIDTH 500 0
DWIDTH 12 0
BBX 0 0 12 -4
VVECTOR 12 -4
SWIDTH1 0 0
DWIDTH1 0 0
BITMAP 
ENDCHAR
STARTCHAR char0D
ENCODING 13
SWIDTH 0 0
DWIDTH 0 0
BBX 0 0 0 -4
VVECTOR 0 -4
SWIDTH1 0 0
DWIDTH1 0 0
BITMAP 
ENDCHAR
STARTCHAR char20
ENCODING 32
SWIDTH 625 0
DWIDTH 15 0
BBX 0 0 15 -4
VVECTOR 15 -4
SWIDTH1 0 0
DWIDTH1 0 0
BITMAP 
ENDCHAR
STARTCHAR char21
ENCODING 33
SWIDTH 1042 0
DWIDTH 25 0
BBX 23 20 1 0
VVECTOR 13 20
SWIDTH1 0 -1000
DWIDTH1 0 -24
BITMAP 
0001E0
000618
000808
000804
001404
00280E
003432
002A06
001D02
001EAC
0007F8
000628
000358
3F0330
FF8350
FFC330
FFF1A0
3FF9A0
007DA0
000FC0
ENDCHAR
STARTCHAR char22
ENCODING 34
SWIDTH 958 0
DWIDTH 23 0
BBX 20 19 1 0
VVECTOR 11 20
SWIDTH1 0 -1000
DWIDTH1 0 -24
BITMAP 
000070
1FE1E0
7FFFC0
F7FF80
FFFFC0
7FF8E0
1FC030
000000
000000
000000
000000
007E00
01EE00
03FC00
C7F800
7FF000
3FC000
300000
400000
ENDCHAR
STARTCHAR char23
ENCODING 35
SWIDTH 542 0
DWIDTH 13 0
BBX 9 21 2 -2
VVECTOR 7 20
SWIDTH1 0 -1000
DWIDTH1 0 -24
BITMAP 
0800
0800
1C00
1C00
2A00
2A00
4900
6B00
5D00
C980
AA80
9C80
C980
AA80
9C80
4900
3E00
0800
0800
1C00
3E00
ENDCHAR
STARTCHAR char24
ENCODING 36
SWIDTH 667 0
DWIDTH 16 0
BBX 14 21 2 -2
VVECTOR 9 20
SWIDTH1 0 -1000
DWIDTH1 0 -24
BITMAP 
001C
0C68
04D0
02E0
0300
0200
0700
0880
1080
1480
2040
2840
4020
6820
8010
A810
8010
A810
8010
6A20
3FC0
ENDCHAR
STARTCHAR char25
ENCODING 37
SWIDTH 875 0
DWIDTH 21 0
BBX 21 13 0 0
VVECTOR 11 20
SWIDTH1 0 -1000
DWIDTH1 0 -24
BITMAP 
03FE00
055500
08AA80
105540
3FFFE0
202020
202020
272FA0
2528A0
252FA0
252020
252020
FFFFF8
ENDCHAR
STARTCHAR char26
ENCODING 38
SWIDTH 667 0
DWIDTH 16 0
BBX 12 24 2 -4
VVECTOR 8 20
SWIDTH1 0 -1000
DWIDTH1 0 -24
BITMAP 
0180
0240
0240
0240
0280
0300
0600
0A00
1200
2200
47C0
4A20
9210
9210
9210
8A10
4220
2240
1F80
0200
0200
0100
0180
00C0
ENDCHAR
STARTCHAR char27
ENCODING 39
SWIDTH 667 0
DWIDTH 16 0
BBX 13 21 1 -2
VVECTOR 8 20
SWIDTH1 0 -1000
DWIDTH1 0 -24
BITMAP 
0700
0880
1640
2620
5810
98C8
C0D8
A328
9348
8888
A508
B208
9248
82E8
9248
9A08
4A10
2220
1240
0A80
0700
ENDCHAR
STARTCHAR char28
ENCODING 40
SWIDTH 583 0
DWIDTH 14 0
BBX 12 12 1 0
VVECTOR 7 20
SWIDTH1 0 -1000
DWIDTH1 0 -24
BITMAP 
0600
0900
2940
0900
76E0
8F10
8F10
76E0
0900
2940
0900
0600
ENDCHAR
STARTCHAR char29
ENCODING 41
SWIDTH 875 0
DWIDTH 21 0
BBX 17 22 2 -3
VVECTOR 11 20
SWIDTH1 0 -1000
DWIDTH1 0 -24
BITMAP 
0DF000
321E00
272500
78C900
873E00
414200
208200
208200
204400
104400
0C4E00
03BF00
07F080
0E7800
0C2400
042000
001000
001000
001000
000800
000800
000800
ENDCHAR
STARTCHAR char2A
ENCODING 42
SWIDTH 833 0
DWIDTH 20 0
BBX 17 23 1 -3
VVECTOR 10 20
SWIDTH1 0 -1000
DWIDTH1 0 -24
BITMAP 
1C0000
A20000
4A0700
420880
521480
241100
17A600
086800
311000
141000
109000
143000
311000
082000
0AA000
044000
3FFC00
280400
3FFC00
140800
140800
0A1000
0FF000
ENDCHAR
STARTCHAR char2B
ENCODING 43
SWIDTH 625 0
DWIDTH 15 0
BBX 11 13 2 0
VVECTOR 8 20
SWIDTH1 0 -1000
DWIDTH1 0 -24
BITMAP 
0400
0E00
1F00
3F80
7FC0
FFE0
1F00
1F00
1F00
1F00
1F00
1F00
1F00
ENDCHAR
STARTCHAR char2C
ENCODING 44
SWIDTH 333 0
DWIDTH 8 0
BBX 8 17 0 0
VVECTOR 4 20
SWIDTH1 0 -1000
DWIDTH1 0 -24
BITMAP 
FF
09
09
09
FF
09
09
09
FF
09
09
09
FF
09
09
09
FF
ENDCHAR
STARTCHAR char2D
ENCODING 45
SWIDTH 708 0
DWIDTH 17 0
BBX 13 11 2 1
VVECTOR 9 20
SWIDTH1 0 -1000
DWIDTH1 0 -24
BITMAP 
0100
0180
01C0
FFE0
FFF0
FFF8
FFF0
FFE0
01C0
0180
0100
ENDCHAR
STARTCHAR char2E
ENCODING 46
SWIDTH 667 0
DWIDTH 16 0
BBX 16 17 0 0
VVECTOR 8 20
SWIDTH1 0 -1000
DWIDTH1 0 -24
BITMAP 
FFFF
0000
0000
0000
FFFF
0000
0000
0000
FFFF
0000
0000
0000
FFFF
0000
0000
0000
FFFF
ENDCHAR
STARTCHAR char2F
ENCODING 47
SWIDTH 625 0
DWIDTH 15 0
BBX 11 24 3 -4
VVECTOR 9 20
SWIDTH1 0 -1000
DWIDTH1 0 -24
BITMAP 
7FC0
6040
3180
1100
1100
1100
1100
1100
3D80
6040
C020
C020
FFE0
0400
0400
0400
0400
0400
0400
0400
0400
0400
0400
0400
ENDCHAR
STARTCHAR char30
ENCODING 48
SWIDTH 417 0
DWIDTH 10 0
BBX 10 10 0 0
VVECTOR 5 20
SWIDTH1 0 -1000
DWIDTH1 0 -24
BITMAP 
0040
0080
0100
0200
0440
0880
1140
2280
4500
8A00
ENDCHAR
STARTCHAR char31
ENCODING 49
SWIDTH 917 0
DWIDTH 22 0
BBX 17 22 4 -3
VVECTOR 13 20
SWIDTH1 0 -1000
DWIDTH1 0 -24
BITMAP 
1F1E00
3FBF00
457F00
3ED080
73FC00
E7B600
CEBB00
8CAF00
194700
114200
114200
024000
028000
028000
048000
068000
048000
068000
048000
068000
048000
030000
ENDCHAR
STARTCHAR char32
ENCODING 50
SWIDTH 833 0
DWIDTH 20 0
BBX 16 12 2 1
VVECTOR 10 20
SWIDTH1 0 -1000
DWIDTH1 0 -24
BITMAP 
03E0
1FF8
607E
800F
0003
0FE0
3FF8
67CC
86C2
47C4
3398
0FE0
ENDCHAR
STARTCHAR char33
ENCODING 51
SWIDTH 667 0
DWIDTH 16 0
BBX 10 20 3 0
VVECTOR 8 20
SWIDTH1 0 -1000
DWIDTH1 0 -24
BITMAP 
1040
1FC0
1040
1FC0
1540
1540
1540
1540
1FC0
2040
40C0
81C0
FF40
FE40
9240
9240
9240
8200
8200
8200
ENDCHAR
STARTCHAR char34
ENCODING 52
SWIDTH 583 0
DWIDTH 14 0
BBX 9 24 2 -4
VVECTOR 7 20
SWIDTH1 0 -1000
DWIDTH1 0 -24
BITMAP 
1C00
2200
1C00
1400
1400
1400
1400
1400
2200
4100
4100
8080
C080
BC80
8480
8480
8480
8480
8480
C480
BC80
8080
4100
3E00
ENDCHAR
STARTCHAR char35
ENCODING 53
SWIDTH 1042 0
DWIDTH 25 0
BBX 19 17 3 -4
VVECTOR 13 20
SWIDTH1 0 -1000
DWIDTH1 0 -24
BITMAP 
00FC00
01AB80
035540
06AAE0
0D57A0
3AF820
6F8020
F00020
800020
800020
800020
800020
800060
800780
80F800
8F0000
700000
ENDCHAR
STARTCHAR char36
ENCODING 54
SWIDTH 583 0
DWIDTH 14 0
BBX 11 22 1 -4
VVECTOR 7 20
SWIDTH1 0 -1000
DWIDTH1 0 -24
BITMAP 
3F80
4040
8020
8020
C060
BFA0
8020
4040
4040
2080
1100
0A00
0A00
0A00
0A00
0A00
1B00
2A80
5140
4040
2080
1F00
ENDCHAR
STARTCHAR char37
ENCODING 55
SWIDTH 750 0
DWIDTH 18 0
BBX 14 23 2 -4
VVECTOR 9 20
SWIDTH1 0 -1000
DWIDTH1 0 -24
BITMAP 
01F0
0620
0840
1080
2080
2100
4100
4100
8900
8080
8040
8020
8010
80E0
4080
4080
2080
2040
1040
0820
0610
0188
007C
ENDCHAR
STARTCHAR char38
ENCODING 56
SWIDTH 833 0
DWIDTH 20 0
BBX 17 16 1 1
VVECTOR 10 20
SWIDTH1 0 -1000
DWIDTH1 0 -24
BITMAP 
008000
008000
014000
014000
022000
022000
FC1F80
400100
200200
100400
080800
118800
124800
244800
282800
301000
ENDCHAR
STARTCHAR char39
ENCODING 57
SWIDTH 500 0
DWIDTH 12 0
BBX 12 11 0 0
VVECTOR 6 20
SWIDTH1 0 -1000
DWIDTH1 0 -24
BITMAP 
8200
4510
28A0
1040
8A20
4510
A280
1040
28A0
4510
8200
ENDCHAR
STARTCHAR char3A
ENCODING 58
SWIDTH 667 0
DWIDTH 16 0
BBX 12 23 2 -3
VVECTOR 8 20
SWIDTH1 0 -1000
DWIDTH1 0 -24
BITMAP 
0180
0300
3BC0
5FA0
0F00
3FC0
5FA0
0F00
1980
2040
4820
4020
D410
8010
A810
8010
AA10
8010
AA90
4020
5520
2040
1F80
ENDCHAR
STARTCHAR char3B
ENCODING 59
SWIDTH 500 0
DWIDTH 12 0
BBX 12 19 0 0
VVECTOR 6 20
SWIDTH1 0 -1000
DWIDTH1 0 -24
BITMAP 
1040
28A0
4510
8200
8200
8200
8200
8200
8200
8200
8200
8200
8200
8200
8200
8200
8200
8200
FFF0
ENDCHAR
STARTCHAR char3C
ENCODING 60
SWIDTH 625 0
DWIDTH 15 0
BBX 12 18 2 0
VVECTOR 8 20
SWIDTH1 0 -1000
DWIDTH1 0 -24
BITMAP 
3F80
3F80
3F80
3F80
3F80
4040
8420
8420
8430
8430
8220
8120
4040
3F80
3F80
3F80
3F80
3F80
ENDCHAR
STARTCHAR char3D
ENCODING 61
SWIDTH 708 0
DWIDTH 17 0
BBX 13 11 2 1
VVECTOR 9 20
SWIDTH1 0 -1000
DWIDTH1 0 -24
BITMAP 
0400
0C00
1C00
3FF8
7FF8
FFF8
7FF8
3FF8
1C00
0C00
0400
ENDCHAR
STARTCHAR char3E
ENCODING 62
SWIDTH 1042 0
DWIDTH 25 0
BBX 21 14 2 -2
VVECTOR 13 20
SWIDTH1 0 -1000
DWIDTH1 0 -24
BITMAP 
1800C0
260320
417410
408810
438E10
448910
417410
269220
1889C0
210830
420608
840190
F40060
080020
ENDCHAR
STARTCHAR char3F
ENCODING 63
SWIDTH 583 0
DWIDTH 14 0
BBX 11 18 1 0
VVECTOR 7 20
SWIDTH1 0 -1000
DWIDTH1 0 -24
BITMAP 
1F00
2080
4040
8020
8020
8020
8020
4040
2080
2080
1100
1100
1D00
1100
1D00
1100
0E00
0400
ENDCHAR
STARTCHAR char40
ENCODING 64
SWIDTH 1083 0
DWIDTH 26 0
BBX 24 22 1 -3
VVECTOR 13 20
SWIDTH1 0 -1000
DWIDTH1 0 -24
BITMAP 
002000
100080
082000
000100
023C08
00C320
010080
420041
120048
040020
040020
040020
A40028
020042
020040
110080
80C320
043C08
000080
108800
000040
010800
ENDCHAR
STARTCHAR char41
ENCODING 65
SWIDTH 500 0
DWIDTH 12 0
BBX 7 17 2 0
VVECTOR 6 20
SWIDTH1 0 -1000
DWIDTH1 0 -24
BITMAP 
02
02
02
02
02
02
02
02
02
02
02
1E
7E
FE
FE
FC
78
ENDCHAR
STARTCHAR char42
ENCODING 66
SWIDTH 833 0
DWIDTH 20 0
BBX 19 22 1 -3
VVECTOR 11 20
SWIDTH1 0 -1000
DWIDTH1 0 -24
BITMAP 
000100
000100
020100
030200
03C200
01E400
0FE800
303F00
407B80
40F3C0
8101E0
800480
822080
800080
A04500
840100
411200
504400
421800
286000
218000
1E0000
ENDCHAR
STARTCHAR char43
ENCODING 67
SWIDTH 1083 0
DWIDTH 26 0
BBX 21 22 3 -3
VVECTOR 14 20
SWIDTH1 0 -1000
DWIDTH1 0 -24
BITMAP 
010018
00FC08
007F08
001F88
000390
000050
00EE20
011140
021D80
0E2380
11C280
2225C0
243A20
1C4420
238440
428F80
45F100
3A2100
442200
845C00
8B8000
700000
ENDCHAR
STARTCHAR char44
ENCODING 68
SWIDTH 875 0
DWIDTH 21 0
BBX 19 19 1 -3
VVECTOR 11 20
SWIDTH1 0 -1000
DWIDTH1 0 -24
BITMAP 
080200
040400
020800
011000
1FFFC0
20E020
4000A0
FFFF20
800120
9FE120
A01120
A01120
A01520
A01120
A01520
A01120
9FE540
800180
7FFF00
ENDCHAR
STARTCHAR char45
ENCODING 69
SWIDTH 833 0
DWIDTH 20 0
BBX 20 19 0 0
VVECTOR 10 20
SWIDTH1 0 -1000
DWIDTH1 0 -24
BITMAP 
0FFC00
080400
092400
080400
092400
080400
092400
080400
7927F0
400010
492490
400010
492490
400010
492490
400010
400010
400010
FFFFF0
ENDCHAR
STARTCHAR char46
ENCODING 70
SWIDTH 1375 0
DWIDTH 33 0
BBX 31 7 1 0
VVECTOR 17 20
SWIDTH1 0 -1000
DWIDTH1 0 -24
BITMAP 
FFFFFFFE
FFFFFFFE
070001C0
18C00630
25200948
25200948
18C00630
ENDCHAR
STARTCHAR char47
ENCODING 71
SWIDTH 1417 0
DWIDTH 34 0
BBX 31 15 1 0
VVECTOR 17 20
SWIDTH1 0 -1000
DWIDTH1 0 -24
BITMAP 
FFFFFFFE
80000002
92492492
92492492
92492492
92492492
92492492
92492492
80000002
FFFFFFFE
070001C0
18C00630
25200948
25200948
18C00630
ENDCHAR
STARTCHAR char48
ENCODING 72
SWIDTH 1333 0
DWIDTH 32 0
BBX 31 17 0 0
VVECTOR 16 20
SWIDTH1 0 -1000
DWIDTH1 0 -24
BITMAP 
03FFFFC0
01000080
01000080
3F0000FC
10000008
10000008
11CE7388
114A5288
11CE7388
9000000A
9000000A
FFFFFFFE
01C00380
06300C60
09481290
09481290
06300C60
ENDCHAR
STARTCHAR char49
ENCODING 73
SWIDTH 750 0
DWIDTH 18 0
BBX 18 11 0 0
VVECTOR 9 20
SWIDTH1 0 -1000
DWIDTH1 0 -24
BITMAP 
30C300
492480
861840
000000
30C300
492480
861840
000000
30C300
492480
861840
ENDCHAR
STARTCHAR char4A
ENCODING 74
SWIDTH 1708 0
DWIDTH 41 0
BBX 40 19 0 0
VVECTOR 20 20
SWIDTH1 0 -1000
DWIDTH1 0 -24
BITMAP 
0000000E00
0000001100
FFF8003B80
8004001100
E774600A00
1554900A00
1554900A00
15579FFB00
1770000080
10000000A0
27FFFFFEA0
20000000A0
23838000A0
3C7C7FFF80
08282073E0
0929218D58
08282252AE
044442527F
0383818C00
ENDCHAR
STARTCHAR char4B
ENCODING 75
SWIDTH 1083 0
DWIDTH 26 0
BBX 24 20 1 -3
VVECTOR 13 20
SWIDTH1 0 -1000
DWIDTH1 0 -24
BITMAP 
00FC00
31EE00
232200
331018
13000C
1B8424
8DF83C
E7FE9C
7FFF0C
03FF8C
3FFFCD
63FFF9
5FFFF3
30FFDE
307FE0
181F32
00059C
0004C0
000C40
0038C0
ENDCHAR
STARTCHAR char4C
ENCODING 76
SWIDTH 708 0
DWIDTH 17 0
BBX 15 18 1 0
VVECTOR 9 20
SWIDTH1 0 -1000
DWIDTH1 0 -24
BITMAP 
0100
0100
0380
0380
07C0
1FF0
07C0
0FE0
3FF8
0FE0
1FF0
7FFC
1FF0
3FF8
FFFE
0380
0380
0380
ENDCHAR
STARTCHAR char4D
ENCODING 77
SWIDTH 792 0
DWIDTH 19 0
BBX 17 5 1 0
VVECTOR 10 20
SWIDTH1 0 -1000
DWIDTH1 0 -24
BITMAP 
003F00
78FF80
F9FF80
F9FF00
78FC00
ENDCHAR
STARTCHAR char4E
ENCODING 78
SWIDTH 792 0
DWIDTH 19 0
BBX 17 5 1 7
VVECTOR 10 20
SWIDTH1 0 -1000
DWIDTH1 0 -24
BITMAP 
78FE00
F9FF00
F9FF80
78FF80
003F00
ENDCHAR
STARTCHAR char4F
ENCODING 79
SWIDTH 1000 0
DWIDTH 24 0
BBX 21 15 1 -1
VVECTOR 12 20
SWIDTH1 0 -1000
DWIDTH1 0 -24
BITMAP 
003FC0
01C030
060008
F83F90
00E0E0
032090
FC1108
030E10
00C060
003F80
300C00
481480
406500
218500
1E0600
ENDCHAR
STARTCHAR char50
ENCODING 80
SWIDTH 500 0
DWIDTH 12 0
BBX 9 24 1 -4
VVECTOR 6 20
SWIDTH1 0 -1000
DWIDTH1 0 -24
BITMAP 
1C00
3600
3A00
3A00
3A00
3A00
3A00
3A00
3A00
FF80
1200
2200
2200
2200
2200
2200
2200
2200
2200
1200
1200
0A00
0600
0200
ENDCHAR
STARTCHAR char51
ENCODING 81
SWIDTH 417 0
DWIDTH 10 0
BBX 10 17 0 0
VVECTOR 5 20
SWIDTH1 0 -1000
DWIDTH1 0 -24
BITMAP 
3F80
2080
2E80
2080
2E80
2080
2E80
2080
2E80
2080
2E80
2080
2E80
2080
2E80
2080
FFC0
ENDCHAR
STARTCHAR char52
ENCODING 82
SWIDTH 583 0
DWIDTH 14 0
BBX 14 20 0 0
VVECTOR 7 20
SWIDTH1 0 -1000
DWIDTH1 0 -24
BITMAP 
0100
0280
0440
0820
1010
1010
1550
1010
7550
4010
5550
4010
555C
4004
5554
4004
5554
4004
4004
FFFC
ENDCHAR
STARTCHAR char53
ENCODING 83
SWIDTH 833 0
DWIDTH 20 0
BBX 18 11 1 0
VVECTOR 10 20
SWIDTH1 0 -1000
DWIDTH1 0 -24
BITMAP 
FFFFC0
800040
C000C0
A00140
980640
861840
89E440
900240
A00140
C000C0
FFFFC0
ENDCHAR
STARTCHAR char54
ENCODING 84
SWIDTH 792 0
DWIDTH 19 0
BBX 19 14 0 0
VVECTOR 10 20
SWIDTH1 0 -1000
DWIDTH1 0 -24
BITMAP 
00FF80
008080
3FB680
200080
2DB680
200080
2DB680
200080
2DB680
200080
2DB680
200080
200080
FFFFE0
ENDCHAR
STARTCHAR char55
ENCODING 85
SWIDTH 1042 0
DWIDTH 25 0
BBX 23 23 1 -4
VVECTOR 13 20
SWIDTH1 0 -1000
DWIDTH1 0 -24
BITMAP 
0F0000
308000
424000
F02000
882000
081000
0F0800
108400
200400
200200
200100
100100
080080
060080
058040
02E040
025820
012620
012590
01DA78
01112C
021096
3FFE7A
ENDCHAR
STARTCHAR char56
ENCODING 86
SWIDTH 542 0
DWIDTH 13 0
BBX 11 21 1 -2
VVECTOR 7 20
SWIDTH1 0 -1000
DWIDTH1 0 -24
BITMAP 
0E00
1100
2080
2080
2080
2080
1100
0A00
8420
FFE0
8420
0400
0400
0400
0400
0400
0400
0400
0400
0400
0E00
ENDCHAR
STARTCHAR char57
ENCODING 87
SWIDTH 583 0
DWIDTH 14 0
BBX 14 17 0 0
VVECTOR 7 20
SWIDTH1 0 -1000
DWIDTH1 0 -24
BITMAP 
7FFC
4004
4924
4924
4924
4004
4004
4924
4924
4924
4004
4004
4924
4924
4924
4004
FFFC
ENDCHAR
STARTCHAR char58
ENCODING 88
SWIDTH 750 0
DWIDTH 18 0
BBX 16 23 1 -4
VVECTOR 9 20
SWIDTH1 0 -1000
DWIDTH1 0 -24
BITMAP 
071C
0FBC
07B8
00EE
079F
0F77
0EFB
06F8
0170
3900
7E00
E20F
823C
0270
0180
0100
0100
0080
0080
0080
0040
0040
0040
ENDCHAR
STARTCHAR char59
ENCODING 89
SWIDTH 708 0
DWIDTH 17 0
BBX 16 24 1 -4
VVECTOR 9 20
SWIDTH1 0 -1000
DWIDTH1 0 -24
BITMAP 
3800
4C00
9400
E580
7240
3B80
4C40
9380
7200
0D1C
013E
0161
7980
1D00
0D00
0200
0200
0200
0200
0400
0400
0400
0400
0400
ENDCHAR
STARTCHAR char5A
ENCODING 90
SWIDTH 625 0
DWIDTH 15 0
BBX 14 23 0 -4
VVECTOR 7 20
SWIDTH1 0 -1000
DWIDTH1 0 -24
BITMAP 
0700
0880
1B60
2690
2790
1B60
8440
6384
3108
3918
1D18
0330
0160
0180
0100
0100
0080
0080
0080
0040
0040
0040
0040
ENDCHAR
STARTCHAR char5B
ENCODING 91
SWIDTH 625 0
DWIDTH 15 0
BBX 11 13 2 0
VVECTOR 8 20
SWIDTH1 0 -1000
DWIDTH1 0 -24
BITMAP 
1F00
1F00
1F00
1F00
1F00
1F00
1F00
FFE0
7FC0
3F80
1F00
0E00
0400
ENDCHAR
STARTCHAR char5C
ENCODING 92
SWIDTH 792 0
DWIDTH 19 0
BBX 17 9 1 0
VVECTOR 10 20
SWIDTH1 0 -1000
DWIDTH1 0 -24
BITMAP 
0FFE00
0FF900
0FF900
0FFE00
0FF800
0FF800
07F000
FFFF80
7FFF00
ENDCHAR
STARTCHAR char5D
ENCODING 93
SWIDTH 1458 0
DWIDTH 35 0
BBX 33 16 1 -4
VVECTOR 18 20
SWIDTH1 0 -1000
DWIDTH1 0 -24
BITMAP 
7000FC0000
F803FF0000
CC07FF8000
071FFFC000
03FFFFE000
01FFFFF000
00FFFFF800
003F07FC00
003603DE00
0066034F00
00CC034380
0198068180
0000000180
0000000300
0000000E00
0000007800
ENDCHAR
STARTCHAR char5E
ENCODING 94
SWIDTH 833 0
DWIDTH 20 0
BBX 18 24 1 -4
VVECTOR 10 20
SWIDTH1 0 -1000
DWIDTH1 0 -24
BITMAP 
0BDC00
16EB00
3BB680
6EDD00
3DB680
EEDB40
BBA5C0
6D7A80
D6CF40
3E5A80
5B7100
21E000
00E000
00E000
00E000
00E000
00E000
00E000
00E000
00F000
01F800
036E00
043000
000800
ENDCHAR
STARTCHAR char5F
ENCODING 95
SWIDTH 1000 0
DWIDTH 24 0
BBX 22 18 1 -4
VVECTOR 12 20
SWIDTH1 0 -1000
DWIDTH1 0 -24
BITMAP 
00FC00
01FE00
018600
018600
7FFFF8
880044
880044
880044
880044
880044
880044
880044
880044
880044
880044
880044
880044
7FFFF8
ENDCHAR
STARTCHAR char60
ENCODING 96
SWIDTH 875 0
DWIDTH 21 0
BBX 18 18 2 -1
VVECTOR 11 20
SWIDTH1 0 -1000
DWIDTH1 0 -24
BITMAP 
03C000
0C3000
100800
200400
21C200
422200
451100
861100
855080
82A080
81C040
400040
400040
220040
188240
062880
018300
007C00
ENDCHAR
STARTCHAR char61
ENCODING 97
SWIDTH 500 0
DWIDTH 12 0
BBX 10 17 1 0
VVECTOR 6 20
SWIDTH1 0 -1000
DWIDTH1 0 -24
BITMAP 
0380
0440
0640
09C0
0880
1080
1100
2100
2200
4200
4400
8400
8800
F000
E000
C000
8000
ENDCHAR
STARTCHAR char62
ENCODING 98
SWIDTH 833 0
DWIDTH 20 0
BBX 18 11 1 0
VVECTOR 10 20
SWIDTH1 0 -1000
DWIDTH1 0 -24
BITMAP 
061800
092400
100200
200100
400080
BEDF40
412080
412080
412080
221100
1C0E00
ENDCHAR
STARTCHAR char63
ENCODING 99
SWIDTH 917 0
DWIDTH 22 0
BBX 18 24 2 -4
VVECTOR 11 20
SWIDTH1 0 -1000
DWIDTH1 0 -24
BITMAP 
A00280
72D180
61E380
63F180
77FB80
3FFF00
07F800
03F000
03F000
01E000
07F800
1FFE00
3F3F00
7C0F80
F003C0
E001C0
F003C0
780780
1C0E00
061800
033000
033000
0E1C00
3C0F00
ENDCHAR
STARTCHAR char64
ENCODING 100
SWIDTH 583 0
DWIDTH 14 0
BBX 12 10 1 0
VVECTOR 7 20
SWIDTH1 0 -1000
DWIDTH1 0 -24
BITMAP 
0400
0980
2980
2710
1FE0
7F00
8E80
0240
0240
0400
ENDCHAR
STARTCHAR char65
ENCODING 101
SWIDTH 958 0
DWIDTH 23 0
BBX 21 11 1 -1
VVECTOR 12 20
SWIDTH1 0 -1000
DWIDTH1 0 -24
BITMAP 
01FE00
068980
E57580
BA2240
79FC60
0922D8
062180
03FFC0
0700C0
1E0180
080000
ENDCHAR
STARTCHAR char66
ENCODING 102
SWIDTH 417 0
DWIDTH 10 0
BBX 8 22 1 -3
VVECTOR 5 20
SWIDTH1 0 -1000
DWIDTH1 0 -24
BITMAP 
7E
FF
C3
C3
FF
7E
18
3C
18
18
18
18
18
18
18
1F
1F
18
1E
1E
18
18
ENDCHAR
STARTCHAR char67
ENCODING 103
SWIDTH 792 0
DWIDTH 19 0
BBX 17 13 1 0
VVECTOR 10 20
SWIDTH1 0 -1000
DWIDTH1 0 -24
BITMAP 
03E700
0C1880
100480
100500
200200
200600
200A00
201200
202200
50C400
930400
8C1800
73E000
ENDCHAR
STARTCHAR char68
ENCODING 104
SWIDTH 1167 0
DWIDTH 28 0
BBX 24 21 2 -2
VVECTOR 14 20
SWIDTH1 0 -1000
DWIDTH1 0 -24
BITMAP 
000200
000700
000E80
000E40
3FFE20
600010
E00008
E00004
E00002
E00001
E00002
E00004
E00008
E00010
FFFE20
FFFE40
FFFE80
000F00
000E00
000C00
000800
ENDCHAR
STARTCHAR char69
ENCODING 105
SWIDTH 875 0
DWIDTH 21 0
BBX 19 24 1 -4
VVECTOR 11 20
SWIDTH1 0 -1000
DWIDTH1 0 -24
BITMAP 
040000
0A0000
0A0000
0A0000
0A0000
0A0000
0A0000
0A0000
0A0000
110000
60C000
802000
802000
FFE000
802000
FFE000
AAA000
AAA000
AAA000
AAA000
7FE000
3FF800
07FF00
007FE0
ENDCHAR
STARTCHAR char6A
ENCODING 106
SWIDTH 667 0
DWIDTH 16 0
BBX 13 17 2 0
VVECTOR 9 20
SWIDTH1 0 -1000
DWIDTH1 0 -24
BITMAP 
0008
0020
1288
3820
4408
FE00
8200
9E00
9200
9E00
9200
9E00
9E00
8200
8200
8200
FE00
ENDCHAR
STARTCHAR char6B
ENCODING 107
SWIDTH 1042 0
DWIDTH 25 0
BBX 19 12 3 -2
VVECTOR 13 20
SWIDTH1 0 -1000
DWIDTH1 0 -24
BITMAP 
600000
7FFFE0
3FFFE0
3FFFE0
3FC000
7F4000
7C4000
FF8000
FC0000
FC0000
FC0000
780000
ENDCHAR
STARTCHAR char6C
ENCODING 108
SWIDTH 917 0
DWIDTH 22 0
BBX 20 9 1 0
VVECTOR 11 20
SWIDTH1 0 -1000
DWIDTH1 0 -24
BITMAP 
FFFF00
800100
800100
8001C0
800120
800130
8001F0
FFFFF0
6C6CC0
ENDCHAR
STARTCHAR char6D
ENCODING 109
SWIDTH 917 0
DWIDTH 22 0
BBX 18 17 2 -2
VVECTOR 11 20
SWIDTH1 0 -1000
DWIDTH1 0 -24
BITMAP 
033000
04C800
03F000
0C0C00
100200
200100
221100
600180
800040
812040
80C040
400080
200100
20C100
100200
0C0C00
03F000
ENDCHAR
STARTCHAR char6E
ENCODING 110
SWIDTH 750 0
DWIDTH 18 0
BBX 17 18 1 0
VVECTOR 10 20
SWIDTH1 0 -1000
DWIDTH1 0 -24
BITMAP 
03F800
043C00
091E00
108E00
220F00
401F00
803F00
E00F00
402E00
501E00
203C00
201800
100700
0E0280
010600
038C00
047000
180000
ENDCHAR
STARTCHAR char6F
ENCODING 111
SWIDTH 875 0
DWIDTH 21 0
BBX 20 18 0 0
VVECTOR 10 20
SWIDTH1 0 -1000
DWIDTH1 0 -24
BITMAP 
007E00
01F100
07F080
7FE080
F7E340
CF8620
AF8010
EFA020
3FB010
67C030
43E810
21C010
0040E0
00C100
038100
0D8380
30C640
403C00
ENDCHAR
STARTCHAR char70
ENCODING 112
SWIDTH 1458 0
DWIDTH 35 0
BBX 32 16 2 0
VVECTOR 18 20
SWIDTH1 0 -1000
DWIDTH1 0 -24
BITMAP 
001FFC00
E06003E0
FD80101E
E6000C01
E4000381
E40200FE
E401E080
E4011F00
E4010100
E402C100
E4023E00
E4058400
E4047800
E6030800
FDC0F000
E03F0000
ENDCHAR
STARTCHAR char71
ENCODING 113
SWIDTH 625 0
DWIDTH 15 0
BBX 15 9 0 -4
VVECTOR 8 20
SWIDTH1 0 -1000
DWIDTH1 0 -24
BITMAP 
0840
0C40
0E40
0F40
FFFE
0F40
0E40
0C40
0840
ENDCHAR
STARTCHAR char72
ENCODING 114
SWIDTH 417 0
DWIDTH 10 0
BBX 8 9 0 -4
VVECTOR 4 20
SWIDTH1 0 -1000
DWIDTH1 0 -24
BITMAP 
10
14
14
15
F5
15
14
14
10
ENDCHAR
STARTCHAR char73
ENCODING 115
SWIDTH 1125 0
DWIDTH 27 0
BBX 27 10 0 -4
VVECTOR 14 20
SWIDTH1 0 -1000
DWIDTH1 0 -24
BITMAP 
00202000
00202000
10505000
10505000
28888800
C88888E0
05050500
05050500
02020200
02020200
ENDCHAR
STARTCHAR char74
ENCODING 116
SWIDTH 708 0
DWIDTH 17 0
BBX 15 18 1 0
VVECTOR 9 20
SWIDTH1 0 -1000
DWIDTH1 0 -24
BITMAP 
0380
0440
0440
0380
0100
07C0
0100
0100
0100
0100
0100
0100
0100
E10E
C106
A10A
1930
07C0
ENDCHAR
STARTCHAR char75
ENCODING 117
SWIDTH 792 0
DWIDTH 19 0
BBX 15 23 3 -4
VVECTOR 11 20
SWIDTH1 0 -1000
DWIDTH1 0 -24
BITMAP 
0810
0420
8240
2000
093E
0100
0900
2220
8410
0E08
1500
2480
3180
2E80
2080
2080
2080
2080
2080
2080
2080
1100
0E00
ENDCHAR
STARTCHAR char76
ENCODING 118
SWIDTH 708 0
DWIDTH 17 0
BBX 15 21 1 -4
VVECTOR 9 20
SWIDTH1 0 -1000
DWIDTH1 0 -24
BITMAP 
03E0
0410
0808
0804
0804
0802
6802
9802
8802
8802
8002
8002
4002
4004
2004
1808
0550
0550
0550
0550
07F0
ENDCHAR
STARTCHAR char77
ENCODING 119
SWIDTH 750 0
DWIDTH 18 0
BBX 15 15 1 1
VVECTOR 9 20
SWIDTH1 0 -1000
DWIDTH1 0 -24
BITMAP 
06C0
0FE0
0FE0
0FE0
77DC
FBBE
FD7E
7EFC
FD7E
F93E
711C
0100
0100
0100
0100
ENDCHAR
STARTCHAR char78
ENCODING 120
SWIDTH 750 0
DWIDTH 18 0
BBX 16 16 1 -1
VVECTOR 9 20
SWIDTH1 0 -1000
DWIDTH1 0 -24
BITMAP 
07E0
07E0
07E0
07E0
07E0
FFFF
FFFF
FFFF
FFFF
FFFF
FFFF
07E0
07E0
07E0
07E0
07E0
ENDCHAR
STARTCHAR char79
ENCODING 121
SWIDTH 458 0
DWIDTH 11 0
BBX 9 24 1 -4
VVECTOR 6 20
SWIDTH1 0 -1000
DWIDTH1 0 -24
BITMAP 
3E00
4100
8080
8080
8080
8080
8080
FF80
8080
AA80
8080
AA80
8080
AA80
8080
FF80
8080
8080
8080
8080
8080
8080
4100
3E00
ENDCHAR
STARTCHAR char7A
ENCODING 122
SWIDTH 1125 0
DWIDTH 27 0
BBX 26 22 0 -4
VVECTOR 13 20
SWIDTH1 0 -1000
DWIDTH1 0 -24
BITMAP 
04000000
0AC00000
0B400000
10400000
24800080
408000C0
80400140
78300240
040FFC40
040FE080
0307E100
0381C100
03800200
03000200
02000200
023FC200
02402100
02401100
02400900
02400900
04801200
07001C00
ENDCHAR
STARTCHAR char7B
ENCODING 123
SWIDTH 625 0
DWIDTH 15 0
BBX 13 12 1 1
VVECTOR 8 20
SWIDTH1 0 -1000
DWIDTH1 0 -24
BITMAP 
0200
0F80
1E40
3C20
3C20
3820
3820
3820
7010
F808
FFF8
0600
ENDCHAR
STARTCHAR char7C
ENCODING 124
SWIDTH 500 0
DWIDTH 12 0
BBX 9 23 1 -4
VVECTOR 6 20
SWIDTH1 0 -1000
DWIDTH1 0 -24
BITMAP 
0200
0000
0500
0800
2000
0080
9C00
3680
BA80
3A00
BE80
5C00
1500
1400
1400
1400
1400
1400
1400
1400
1400
1400
1C00
ENDCHAR
STARTCHAR char7D
ENCODING 125
SWIDTH 1417 0
DWIDTH 34 0
BBX 31 10 1 1
VVECTOR 17 20
SWIDTH1 0 -1000
DWIDTH1 0 -24
BITMAP 
00018000
FFFFFF80
FFFFFF80
0019FFE0
001FE3FC
0019F0FE
0018D87E
0018683E
0018701E
00000006
ENDCHAR
STARTCHAR char7E
ENCODING 126
SWIDTH 1000 0
DWIDTH 24 0
BBX 22 12 1 0
VVECTOR 12 20
SWIDTH1 0 -1000
DWIDTH1 0 -24
BITMAP 
078000
084000
F24000
F0200C
101FF4
080004
080008
080088
088310
087C10
040060
03FF80
ENDCHAR
STARTCHAR char7F
ENCODING 127
SWIDTH 667 0
DWIDTH 16 0
BBX 14 17 1 -3
VVECTOR 8 20
SWIDTH1 0 -1000
DWIDTH1 0 -24
BITMAP 
00C0
0120
0620
1810
2058
4028
405C
802C
8054
80BC
8054
42BC
4168
22B0
11E0
1380
0E00
ENDCHAR
STARTCHAR char80
ENCODING 128
SWIDTH 875 0
DWIDTH 21 0
BBX 18 18 1 -3
VVECTOR 10 20
SWIDTH1 0 -1000
DWIDTH1 0 -24
BITMAP 
03F000
0C0C00
188200
270900
48F080
410F80
801040
800040
800040
800040
812940
84FE40
530180
4C0080
280100
100200
0C0C00
03F000
ENDCHAR
STARTCHAR char81
ENCODING 129
SWIDTH 1375 0
DWIDTH 33 0
BBX 31 10 1 0
VVECTOR 17 20
SWIDTH1 0 -1000
DWIDTH1 0 -24
BITMAP 
000E0000
001F4000
40032000
60063000
5FFFFFF0
40000018
43000186
FCFFFE7E
04800240
03000180
ENDCHAR
STARTCHAR char8C
ENCODING 140
SWIDTH 83 0
DWIDTH 2 0
BBX 0 0 2 -4
VVECTOR 2 -4
SWIDTH1 0 0
DWIDTH1 0 0
BITMAP 
ENDCHAR
STARTCHAR char8D
ENCODING 141
SWIDTH 250 0
DWIDTH 6 0
BBX 0 0 6 -4
VVECTOR 6 -4
SWIDTH1 0 0
DWIDTH1 0 0
BITMAP 
ENDCHAR
STARTCHAR charBF
ENCODING 191
SWIDTH 167 0
DWIDTH 4 0
BBX 0 0 4 -4
VVECTOR 4 -4
SWIDTH1 0 0
DWIDTH1 0 0
BITMAP 
ENDCHAR
STARTCHAR missing
ENCODING -1
SWIDTH 667 0
DWIDTH 16 0
BBX 12 16 2 0
VVECTOR 8 20
SWIDTH1 0 -1000
DWIDTH1 0 -24
BITMAP 
FFF0
8010
8010
8010
8010
8010
8010
8010
8010
8010
8010
8010
8010
8010
8010
FFF0
ENDCHAR
ENDFONT
